<svg width="81" height="81" viewBox="0 0 81 81" fill="none" xmlns="http://www.w3.org/2000/svg">
<path d="M81 61C81 71.873 72.3235 80.7192 61.5166 80.9932L61 81H55C51.6863 81 49 78.3137 49 75C49 71.6863 51.6863 69 55 69H61C65.4183 69 69 65.4183 69 61V55C69 51.6863 71.6863 49 75 49C78.3137 49 81 51.6863 81 55V61Z" fill="white"/>
<path d="M25 0C28.3137 0 31 2.68629 31 6C31 9.31371 28.3137 12 25 12H20C15.5817 12 12 15.5817 12 20V25C12 28.3137 9.31371 31 6 31C2.68629 31 0 28.3137 0 25V20C0 8.95431 8.95431 8.05322e-08 20 0H25Z" fill="white"/>
<path d="M12 61C12 65.4183 15.5817 69 20 69H25C28.3137 69 31 71.6863 31 75C31 78.3137 28.3137 81 25 81H20L19.4834 80.9932C8.84814 80.7235 0.276492 72.1519 0.00683594 61.5166L0 61V55C0 51.6863 2.68629 49 6 49C9.31371 49 12 51.6863 12 55V61Z" fill="white" fill-opacity="0.45"/>
<path d="M61 0C72.0457 0 81 8.95431 81 20V25C81 28.3137 78.3137 31 75 31C71.6863 31 69 28.3137 69 25V20C69 15.5817 65.4183 12 61 12H55C51.6863 12 49 9.31371 49 6C49 2.68629 51.6863 0 55 0H61Z" fill="white" fill-opacity="0.45"/>
</svg>
