<svg width="81" height="81" viewBox="0 0 81 81" fill="none" xmlns="http://www.w3.org/2000/svg">
<rect x="15.2812" y="15.2812" width="50.4375" height="50.4375" rx="14" stroke="white" stroke-opacity="0.45" stroke-width="12"/>
<path d="M9.28125 0C14.4071 0 18.5625 4.15536 18.5625 9.28125H30.375C32.705 9.28125 34.5938 11.17 34.5938 13.5C34.5938 15.83 32.705 17.7187 30.375 17.7188H17.7188V30.375C17.7187 32.705 15.83 34.5938 13.5 34.5938C11.17 34.5938 9.28125 32.705 9.28125 30.375V18.5625C4.15536 18.5625 0 14.4071 0 9.28125C0 4.15536 4.15536 0 9.28125 0Z" fill="white"/>
<path d="M71.7188 81C66.5929 81 62.4375 76.8446 62.4375 71.7188H50.625C48.295 71.7187 46.4062 69.83 46.4062 67.5C46.4062 65.17 48.295 63.2813 50.625 63.2812H63.2812V50.625C63.2813 48.295 65.17 46.4062 67.5 46.4062C69.83 46.4062 71.7187 48.295 71.7188 50.625V62.4375C76.8446 62.4375 81 66.5929 81 71.7188C81 76.8446 76.8446 81 71.7188 81Z" fill="white"/>
<path d="M31.2201 31.8371C33.3542 29.5421 36.2641 28.1201 39.3861 27.8471C41.4391 27.6677 43.488 27.9934 45.3613 28.7749C46.9874 29.4532 47.2593 31.4988 46.1968 32.9043C45.1343 34.3097 43.1027 34.4842 41.3578 34.2403C40.9869 34.1885 40.6101 34.1697 40.232 34.1851L39.9418 34.2039C38.3936 34.3393 36.9507 35.044 35.8924 36.182L35.6992 36.3995C34.7616 37.5065 34.2348 38.9076 34.2135 40.3642L34.2157 40.6549C34.2618 42.105 34.809 43.4983 35.7695 44.5936C36.794 45.762 38.2159 46.5088 39.7593 46.6894C41.3027 46.8699 42.858 46.4709 44.1245 45.5706C45.312 44.7264 46.1663 43.4973 46.5457 42.0968L46.6157 41.8145C46.719 41.3487 46.7681 40.8762 46.7644 40.4058C46.7504 38.6441 47.189 36.6529 48.7212 35.7833C50.2534 34.9138 52.2457 35.4506 52.7058 37.1513C53.2358 39.1106 53.291 41.1845 52.8448 43.1964L52.7042 43.7657C51.939 46.5898 50.2161 49.0688 47.8216 50.7711L47.3363 51.0993C45.0396 52.577 42.3256 53.2721 39.6013 53.0806L39.0181 53.0264C36.1 52.6851 33.3977 51.3397 31.3689 49.2313L30.9723 48.7995C28.9063 46.4432 27.7874 43.4042 27.8331 40.2708C27.879 37.1374 29.0861 34.132 31.2201 31.8371Z" fill="white"/>
</svg>
