<svg width="66" height="39" viewBox="0 0 66 39" fill="none" xmlns="http://www.w3.org/2000/svg">
<rect x="51" y="11" width="15" height="16" rx="5" fill="#E8E8E8"/>
<rect x="4" y="4" width="51" height="31" rx="11" stroke="#E8E8E8" stroke-width="8"/>
<rect x="6" y="6" width="37.5" height="27" rx="10" fill="#49BD7D"/>
<path d="M28.85 3.95447C29.8652 2.30397 32.3997 2.91734 32.5479 4.8494L33.3564 15.389C33.4566 16.6947 34.3863 17.7874 35.6591 18.0954C36.9795 18.4151 37.604 19.9304 36.8922 21.0876L28.3401 34.9905C27.3248 36.641 24.7904 36.0276 24.6421 34.0956L23.8336 23.556C23.7334 22.2502 22.8038 21.1575 21.5309 20.8495C20.2105 20.5299 19.586 19.0145 20.2978 17.8573L28.85 3.95447Z" fill="#E8E8E8"/>
</svg>
