<svg width="96" height="96" viewBox="0 0 96 96" fill="none" xmlns="http://www.w3.org/2000/svg">
<path d="M39.5088 6C50.6107 6.00005 58.706 9.77026 62.5215 13.9512C64.3786 15.9862 65.059 17.8996 65.0664 19.4824C65.0734 21.005 64.4639 23.019 62.1826 25.3506L56.6699 30.9854C52.2601 35.4926 49.6436 40.9683 49.5488 46.8496C49.4539 52.7393 51.9009 58.2797 56.1963 62.874L63.2803 70.4512C65.4731 72.7966 66.0415 74.8188 65.998 76.376C65.9526 78.003 65.2118 79.9594 63.2861 82.0215C59.3391 86.2479 51.1252 89.9999 39.9766 90C32.0788 90 25.2145 88.0098 20.5195 85.1084C15.7311 82.1492 14 78.8478 14 76.2393V19.4717C14.0001 16.943 15.6791 13.7145 20.3828 10.8076C24.9932 7.95848 31.7401 6 39.5088 6Z" stroke="#E8E8E8" stroke-width="12"/>
<rect x="76" y="24" width="12" height="48" rx="6" fill="#E8E8E8" fill-opacity="0.45"/>
<rect x="40" y="42" width="12" height="17" rx="6" transform="rotate(90 40 42)" fill="#E8E8E8" fill-opacity="0.45"/>
</svg>
