<svg width="96" height="96" viewBox="0 0 96 96" fill="none" xmlns="http://www.w3.org/2000/svg">
<path d="M48 0C74.5097 0 96 21.4903 96 48C96 63.6129 88.5436 77.482 77 86.248V69.3301C81.3985 63.3599 84 55.9843 84 48C84 28.1177 67.8822 12 48 12C28.1177 12 12 28.1177 12 48C12 55.9843 14.6015 63.3599 19 69.3301V86.248C7.45635 77.482 0 63.6129 0 48C0 21.4903 21.4903 0 48 0Z" fill="#E8E8E8"/>
<mask id="path-2-inside-1_333_57" fill="white">
<path d="M73.9949 48.5C76.7591 48.5 79.0406 46.2453 78.6032 43.5159C78.2152 41.0947 77.5449 38.7214 76.6022 36.4455C75.0192 32.6237 72.6989 29.1512 69.7739 26.2261C66.8488 23.3011 63.3763 20.9808 59.5545 19.3978C55.7328 17.8148 51.6366 17 47.5 17C43.3634 17 39.2672 17.8148 35.4455 19.3978C31.6237 20.9808 28.1512 23.3011 25.2261 26.2261C22.3011 29.1512 19.9808 32.6237 18.3978 36.4455C17.4551 38.7214 16.7848 41.0947 16.3968 43.5159C15.9594 46.2453 18.2409 48.5 21.0051 48.5V48.5C23.7694 48.5 25.9525 46.2296 26.5905 43.54C26.8542 42.4283 27.2068 41.3368 27.646 40.2762C28.726 37.669 30.3089 35.3 32.3044 33.3044C34.2999 31.3089 36.669 29.726 39.2762 28.646C41.8835 27.5661 44.6779 27.0102 47.5 27.0102C50.3221 27.0102 53.1165 27.5661 55.7238 28.646C58.331 29.726 60.7 31.3089 62.6956 33.3044C64.6911 35.3 66.274 37.669 67.354 40.2762C67.7932 41.3368 68.1458 42.4283 68.4095 43.54C69.0475 46.2296 71.2306 48.5 73.9949 48.5V48.5Z"/>
</mask>
<path d="M73.9949 48.5C76.7591 48.5 79.0406 46.2453 78.6032 43.5159C78.2152 41.0947 77.5449 38.7214 76.6022 36.4455C75.0192 32.6237 72.6989 29.1512 69.7739 26.2261C66.8488 23.3011 63.3763 20.9808 59.5545 19.3978C55.7328 17.8148 51.6366 17 47.5 17C43.3634 17 39.2672 17.8148 35.4455 19.3978C31.6237 20.9808 28.1512 23.3011 25.2261 26.2261C22.3011 29.1512 19.9808 32.6237 18.3978 36.4455C17.4551 38.7214 16.7848 41.0947 16.3968 43.5159C15.9594 46.2453 18.2409 48.5 21.0051 48.5V48.5C23.7694 48.5 25.9525 46.2296 26.5905 43.54C26.8542 42.4283 27.2068 41.3368 27.646 40.2762C28.726 37.669 30.3089 35.3 32.3044 33.3044C34.2999 31.3089 36.669 29.726 39.2762 28.646C41.8835 27.5661 44.6779 27.0102 47.5 27.0102C50.3221 27.0102 53.1165 27.5661 55.7238 28.646C58.331 29.726 60.7 31.3089 62.6956 33.3044C64.6911 35.3 66.274 37.669 67.354 40.2762C67.7932 41.3368 68.1458 42.4283 68.4095 43.54C69.0475 46.2296 71.2306 48.5 73.9949 48.5V48.5Z" stroke="#E8E8E8" stroke-opacity="0.45" stroke-width="24" mask="url(#path-2-inside-1_333_57)"/>
<rect x="19" y="60" width="20" height="36" rx="10" fill="#E8E8E8" fill-opacity="0.45"/>
<rect x="57" y="60" width="20" height="36" rx="10" fill="#E8E8E8" fill-opacity="0.45"/>
<rect x="24" y="56" width="10" height="14" rx="5" fill="#E8E8E8"/>
<rect x="62" y="56" width="10" height="14" rx="5" fill="#E8E8E8"/>
</svg>
