<svg width="96" height="96" viewBox="0 0 96 96" fill="none" xmlns="http://www.w3.org/2000/svg">
<path fill-rule="evenodd" clip-rule="evenodd" d="M33.3125 12.8454C45.5611 5.24823 62 13.6853 62 28.4284V32.9997C62 36.3134 59.3137 38.9997 56 38.9997C52.6863 38.9997 50 36.3134 50 32.9997V28.4284C50 23.5852 44.3149 20.1427 39.6377 23.0437L38.1504 23.9655C35.1571 25.8221 31.6974 26.8014 28.1748 26.8015H18.7119C14.8726 26.8015 12.0002 29.8062 12 33.2194V63.2097C12.0005 66.6227 14.8728 69.6276 18.7119 69.6276H31.8154C32.9585 69.6276 34.0552 69.9553 34.9932 70.5339L41.3213 73.4128C45.5511 75.3366 49.9997 72.2221 50 68.1853V62.0485C50 58.7348 52.6863 56.0485 56 56.0485C59.3137 56.0485 62 58.7348 62 62.0485V68.1853C61.9997 81.391 48.1234 89.6895 36.3525 84.3357C32.4293 82.551 28.1693 81.6276 23.8593 81.6276H18.7119C8.51097 81.6276 0.000467111 73.5126 0 63.2097V33.2194C0.000163846 22.9163 8.51078 14.8015 18.7119 14.8015H28.1748C29.4779 14.8014 30.7445 14.4385 31.8252 13.7683L33.3125 12.8454Z" fill="white"/>
<path fill-rule="evenodd" clip-rule="evenodd" d="M81.5605 23.6797C83.9839 25.0791 84.8141 28.179 83.415 30.6026L80.459 35.7227C79.0596 38.146 75.9597 38.9772 73.5361 37.5782C71.1126 36.1788 70.2817 33.079 71.6807 30.6553L74.6377 25.5342C76.0372 23.1109 79.137 22.2805 81.5605 23.6797ZM83.415 65.3985C84.8142 67.8222 83.9832 70.922 81.5596 72.3213C79.136 73.7203 76.0371 72.8901 74.6377 70.4668L71.6807 65.3457C70.2818 62.9222 71.1128 59.8232 73.5361 58.4239C75.9597 57.0248 79.0596 57.855 80.459 60.2783L83.415 65.3985ZM95.6016 48.001C95.6013 50.7994 93.3326 53.0682 90.5342 53.0684H84.6211C81.8227 53.0681 79.5539 50.7994 79.5537 48.001C79.5537 45.2024 81.8226 42.9329 84.6211 42.9326H90.5342C93.3328 42.9328 95.6016 45.2024 95.6016 48.001Z" fill="white" fill-opacity="0.45"/>
<rect x="95.6016" y="53.0684" width="16.0474" height="10.1351" rx="5.06757" transform="rotate(180 95.6016 53.0684)" fill="white"/>
</svg>
