<svg width="81" height="81" viewBox="0 0 81 81" fill="none" xmlns="http://www.w3.org/2000/svg">
<rect x="26.25" y="21.1875" width="48.75" height="38.625" rx="14" stroke="white" stroke-width="12"/>
<path d="M0 32.0907C0 22.3408 10.4909 16.2471 18.8838 21.122L30.375 27.7958V53.203L18.8838 59.8778C10.491 64.7526 7.53001e-05 58.6589 0 48.9091V32.0907ZM12.6035 31.4061C12.5553 31.407 12.4511 31.4241 12.3223 31.4989C12.1931 31.5739 12.112 31.6648 12.0723 31.7313C12.0542 31.7616 12.0398 31.7944 12.0283 31.8358C12.0174 31.8751 12 31.955 12 32.0907V48.9091C12 49.0448 12.0174 49.1247 12.0283 49.1639C12.0398 49.2053 12.0542 49.2381 12.0723 49.2684C12.112 49.335 12.1932 49.4259 12.3223 49.5009C12.4511 49.5757 12.5553 49.5927 12.6035 49.5936C12.6244 49.594 12.6443 49.5922 12.6689 49.5858C12.6915 49.58 12.753 49.5609 12.8564 49.5009L27.334 41.0917C27.5095 40.9898 27.5516 40.9173 27.5723 40.8798C27.6107 40.8099 27.6562 40.6784 27.6562 40.4999C27.6562 40.3214 27.6107 40.1899 27.5723 40.12C27.5516 40.0825 27.5095 40.0101 27.334 39.9081L12.8564 31.4989C12.753 31.4388 12.6915 31.4198 12.6689 31.4139C12.6443 31.4076 12.6244 31.4058 12.6035 31.4061Z" fill="white" fill-opacity="0.45"/>
<rect x="29.5312" width="19.4062" height="10.125" rx="5.0625" fill="white" fill-opacity="0.55"/>
<rect x="29.5312" y="70.875" width="19.4062" height="10.125" rx="5.0625" fill="white" fill-opacity="0.55"/>
</svg>
