<svg width="512" height="512" viewBox="0 0 512 512" fill="none" xmlns="http://www.w3.org/2000/svg">
<rect x="22.5" y="22.5" width="467" height="467" rx="102.5" fill="#7768FA" stroke="#493DB3" stroke-width="45"/>
<path d="M275.097 150.16C275.097 150.16 328.423 229.036 362.865 231.262C362.865 231.262 372.864 174.603 363.979 149.053C363.972 149.046 321.758 136.828 275.097 150.16ZM144.001 234.595L180.663 244.594L202.88 205.712C202.887 205.706 145.114 225.703 144.001 234.595ZM270.651 327.916L277.317 364.578L287.315 355.686L303.98 325.69L305.093 305.692L270.651 327.916ZM203.993 267.924L167.331 282.369L172.884 292.367L156.219 336.808L158.439 344.587L167.325 341.254L193.988 347.92C193.988 347.92 218.431 354.586 229.536 343.474L243.981 325.696L246.201 313.478L203.993 267.924Z" fill="white" fill-opacity="0.45"/>
<path d="M233.989 239.597C233.989 244.193 234.894 248.743 236.653 252.989C238.412 257.235 240.99 261.093 244.239 264.342C247.489 267.592 251.347 270.17 255.593 271.928C259.838 273.687 264.389 274.592 268.985 274.592C273.58 274.592 278.131 273.687 282.377 271.928C286.623 270.17 290.481 267.592 293.73 264.342C296.98 261.093 299.557 257.235 301.316 252.989C303.075 248.743 303.98 244.193 303.98 239.597C303.98 230.316 300.293 221.414 293.73 214.851C287.167 208.289 278.266 204.602 268.985 204.602C259.703 204.602 250.802 208.289 244.239 214.851C237.676 221.414 233.989 230.316 233.989 239.597Z" fill="white" fill-opacity="0.45"/>
<path d="M266.704 336.011C264.937 336.011 263.241 335.309 261.992 334.058L177.229 249.29C176.288 248.348 175.649 247.145 175.398 245.837C175.146 244.529 175.292 243.175 175.816 241.951C189.615 209.755 235.528 164.661 265.818 147.35C274.91 142.157 287.622 138.844 303.599 137.498C305.331 137.405 307.031 137.99 308.339 139.129C309.647 140.269 310.46 141.872 310.605 143.6C310.751 145.329 310.218 147.046 309.119 148.388C308.02 149.73 306.442 150.591 304.719 150.789C290.688 151.969 279.823 154.709 272.43 158.928C245.967 174.053 204.359 214.654 189.954 243.17L268.111 321.333C296.627 306.922 337.235 265.314 352.353 238.851C365.418 215.981 360.592 167.84 358.652 152.616C349.6 151.457 340.501 150.694 331.382 150.329C329.617 150.26 327.95 149.492 326.75 148.195C325.55 146.897 324.915 145.176 324.983 143.41C325.001 142.53 325.195 141.663 325.556 140.86C325.916 140.058 326.435 139.336 327.081 138.738C327.727 138.141 328.487 137.68 329.316 137.383C330.144 137.086 331.024 136.96 331.902 137.011C347.334 137.611 360.019 139.311 364.251 139.931C364.997 139.892 365.742 139.991 366.451 140.224C367.784 140.651 368.951 141.444 369.791 142.49C370.357 143.151 370.783 143.92 371.044 144.75C371.297 145.55 371.404 146.377 371.364 147.19C372.997 158.368 380.456 216.521 363.918 245.457C346.607 275.746 301.513 321.667 269.317 335.465C268.494 335.826 267.604 336.012 266.704 336.011Z" fill="white"/>
<path d="M181.949 251.243C181.422 251.243 180.896 251.181 180.383 251.057L142.108 241.845C140.983 241.574 139.949 241.016 139.105 240.225C138.262 239.434 137.639 238.437 137.297 237.332C136.956 236.228 136.908 235.053 137.157 233.924C137.407 232.795 137.946 231.75 138.722 230.893C167.351 199.25 203.946 199.683 205.473 199.637C206.348 199.655 207.211 199.846 208.013 200.197C208.815 200.549 209.54 201.056 210.146 201.688C210.752 202.32 211.227 203.065 211.545 203.881C211.863 204.697 212.017 205.567 211.999 206.443C211.95 208.202 211.212 209.872 209.944 211.092C208.676 212.313 206.979 212.987 205.219 212.968C204.88 212.962 179.829 212.828 157.059 231.733L183.502 238.098C185.098 238.47 186.501 239.416 187.443 240.757C188.385 242.098 188.799 243.739 188.607 245.366C188.414 246.993 187.629 248.492 186.401 249.576C185.173 250.661 183.588 251.254 181.949 251.243ZM277.63 376C276.133 376.002 274.679 375.499 273.503 374.573C272.328 373.646 271.499 372.35 271.151 370.894L261.939 332.619C261.713 331.761 261.66 330.867 261.784 329.988C261.908 329.109 262.207 328.264 262.662 327.502C263.117 326.74 263.719 326.077 264.434 325.551C265.149 325.025 265.961 324.648 266.824 324.44C267.687 324.232 268.583 324.199 269.458 324.342C270.334 324.485 271.173 324.801 271.924 325.272C272.676 325.744 273.327 326.36 273.837 327.086C274.347 327.812 274.708 328.633 274.897 329.5L281.263 355.943C300.14 333.206 300.034 308.063 300.027 307.783C300 306.017 300.675 304.313 301.904 303.044C303.132 301.776 304.814 301.047 306.579 301.017H306.699C308.442 301.016 310.116 301.698 311.362 302.917C312.608 304.136 313.327 305.794 313.365 307.536C313.392 309.076 313.772 345.638 282.109 374.287C280.877 375.388 279.283 375.998 277.63 376ZM359.139 243.444C357.857 243.444 356.603 243.073 355.526 242.378C298.84 205.783 270.904 158.482 269.738 156.483C268.94 154.961 268.759 153.19 269.234 151.539C269.709 149.888 270.803 148.484 272.287 147.618C273.772 146.753 275.533 146.494 277.203 146.895C278.874 147.296 280.326 148.326 281.256 149.77C281.529 150.23 308.879 196.391 362.759 231.173C363.966 231.955 364.888 233.107 365.387 234.456C365.887 235.805 365.937 237.28 365.53 238.66C365.123 240.039 364.281 241.251 363.129 242.113C361.977 242.975 360.578 243.442 359.139 243.444ZM269.124 283.059C263.511 283.07 257.95 281.971 252.763 279.826C247.575 277.681 242.862 274.532 238.895 270.561C230.888 262.537 226.391 251.664 226.391 240.328C226.391 228.992 230.888 218.12 238.895 210.095C239.514 209.477 240.249 208.986 241.057 208.651C241.866 208.316 242.733 208.143 243.608 208.143C244.483 208.143 245.35 208.316 246.158 208.651C246.967 208.986 247.702 209.477 248.32 210.095C248.939 210.714 249.43 211.449 249.765 212.258C250.1 213.066 250.273 213.933 250.273 214.808C250.273 215.683 250.1 216.55 249.765 217.359C249.43 218.167 248.939 218.902 248.32 219.521C242.811 225.044 239.717 232.527 239.717 240.328C239.717 248.129 242.811 255.612 248.32 261.135C253.843 266.644 261.324 269.738 269.124 269.738C276.925 269.738 284.406 266.644 289.928 261.135C295.438 255.612 298.532 248.129 298.532 240.328C298.532 232.527 295.438 225.044 289.928 219.521C285.042 214.636 278.593 211.625 271.711 211.015C269.976 210.828 268.385 209.969 267.277 208.621C266.169 207.274 265.634 205.546 265.785 203.808C265.937 202.07 266.764 200.461 268.089 199.326C269.413 198.191 271.13 197.621 272.871 197.737C282.875 198.621 292.25 202.996 299.354 210.095C307.361 218.12 311.858 228.992 311.858 240.328C311.858 251.664 307.361 262.537 299.354 270.561C295.387 274.532 290.674 277.681 285.486 279.826C280.298 281.971 274.738 283.07 269.124 283.059Z" fill="white"/>
<path d="M226.783 352.923C225.297 352.922 223.853 352.425 222.682 351.511C221.511 350.596 220.679 349.317 220.318 347.875C219.957 346.434 220.088 344.913 220.691 343.554C221.293 342.196 222.332 341.078 223.643 340.378C232.182 335.818 238.074 326.379 241.154 312.321C241.532 310.594 242.581 309.088 244.07 308.134C245.559 307.18 247.366 306.857 249.093 307.235C250.82 307.614 252.326 308.663 253.28 310.151C254.234 311.64 254.557 313.447 254.179 315.174C250.219 333.225 242.061 345.664 229.916 352.143C228.951 352.657 227.875 352.925 226.783 352.923ZM194.84 355.196C194.285 355.196 193.732 355.126 193.194 354.989C185.415 353.009 180.009 350.29 179.782 350.176C179.457 350.01 179.145 349.818 178.849 349.603C174.996 346.777 165.171 350.436 159.751 353.796C159.731 354.951 159.41 356.082 158.821 357.076C158.231 358.07 157.394 358.894 156.39 359.467C155.386 360.039 154.25 360.341 153.094 360.343C151.939 360.344 150.802 360.045 149.797 359.474C148.792 358.904 147.952 358.082 147.361 357.089C146.769 356.096 146.446 354.967 146.422 353.811C146.399 352.656 146.677 351.514 147.228 350.498C147.779 349.482 148.585 348.627 149.566 348.017C150.099 318.714 159.318 301.056 166.104 291.971C164.379 290.704 162.792 289.258 161.371 287.658C160.275 286.405 159.687 284.788 159.723 283.124C159.758 281.46 160.415 279.87 161.565 278.666C180.335 259.008 205.039 264.021 206.079 264.241C209.678 265.014 211.971 268.554 211.205 272.16C210.83 273.88 209.793 275.382 208.318 276.343C206.844 277.304 205.05 277.645 203.326 277.293C202.679 277.159 189.448 274.626 177.162 282.845L177.329 282.852C178.722 282.851 180.08 283.286 181.213 284.097C182.346 284.907 183.196 286.052 183.645 287.371C184.093 288.689 184.118 290.115 183.714 291.449C183.311 292.782 182.5 293.955 181.395 294.804C180.782 295.297 166.85 306.815 163.564 337.391C170.423 335.058 179.229 333.765 186.188 338.471C187.368 339.024 191.274 340.751 196.487 342.077C197.335 342.293 198.133 342.673 198.835 343.198C199.537 343.722 200.128 344.379 200.576 345.132C201.023 345.884 201.318 346.718 201.444 347.585C201.569 348.451 201.522 349.334 201.306 350.183C200.934 351.616 200.098 352.885 198.928 353.792C197.758 354.699 196.321 355.193 194.84 355.196Z" fill="white"/>
<path d="M184.549 329.578C183.344 329.575 182.162 329.245 181.129 328.624C180.096 328.003 179.25 327.114 178.682 326.051C178.114 324.988 177.845 323.791 177.902 322.587C177.96 321.383 178.343 320.217 179.01 319.213C180.396 317.133 182.429 314.874 184.896 312.66C185.547 312.076 186.307 311.625 187.132 311.334C187.958 311.043 188.832 310.917 189.706 310.964C190.58 311.011 191.437 311.23 192.226 311.608C193.016 311.986 193.723 312.516 194.308 313.167C194.892 313.818 195.343 314.578 195.634 315.404C195.925 316.229 196.051 317.104 196.004 317.978C195.957 318.852 195.738 319.708 195.36 320.498C194.982 321.287 194.452 321.994 193.801 322.579C191.615 324.539 190.541 325.945 190.101 326.612C189.492 327.526 188.666 328.274 187.697 328.792C186.729 329.309 185.647 329.58 184.549 329.578ZM205.519 314.68C203.918 314.682 202.37 314.108 201.157 313.062C199.945 312.016 199.149 310.569 198.916 308.984C198.683 307.4 199.028 305.785 199.888 304.434C200.748 303.084 202.066 302.088 203.6 301.629C207.852 300.349 211.699 300.155 215.018 301.062C216.025 300.382 218.884 294.869 220.104 290.183C220.57 288.494 221.682 287.057 223.199 286.181C224.717 285.305 226.518 285.063 228.214 285.505C229.909 285.948 231.362 287.04 232.258 288.545C233.154 290.051 233.422 291.848 233.003 293.55C232.376 295.949 228.856 308.161 221.151 312.62C219.715 313.476 218.121 314.033 216.465 314.258C214.808 314.482 213.124 314.37 211.512 313.927C211.212 313.84 210.006 313.627 207.439 314.4C206.816 314.585 206.169 314.679 205.519 314.68Z" fill="white"/>
</svg>
