<svg width="96" height="96" viewBox="0 0 96 96" fill="none" xmlns="http://www.w3.org/2000/svg">
<circle cx="48" cy="48" r="17" stroke="white" stroke-opacity="0.45" stroke-width="12"/>
<path d="M41.9919 6.38695C41.9919 3.06799 44.6824 0.377441 48.0014 0.377441C51.3204 0.377441 54.0109 3.06799 54.0109 6.38695V12.3964C54.0109 15.7154 51.3204 18.406 48.0014 18.406C44.6824 18.406 41.9919 15.7154 41.9919 12.3965V6.38695Z" fill="white"/>
<path d="M81.0344 21.989C83.9087 20.3295 87.5841 21.3143 89.2435 24.1886C90.903 27.0629 89.9182 30.7383 87.0439 32.3977L81.8395 35.4025C78.9652 37.062 75.2899 36.0772 73.6304 33.2029C71.9709 30.3286 72.9557 26.6532 75.83 24.9937L81.0344 21.989Z" fill="white"/>
<path d="M87.0439 63.6018C89.9182 65.2613 90.903 68.9366 89.2435 71.8109C87.5841 74.6852 83.9087 75.67 81.0344 74.0106L75.83 71.0058C72.9557 69.3463 71.9709 65.671 73.6304 62.7967C75.2899 59.9224 78.9652 58.9376 81.8395 60.597L87.0439 63.6018Z" fill="white"/>
<path d="M54.0109 89.6126C54.0109 92.9315 51.3203 95.6221 48.0014 95.6221C44.6824 95.6221 41.9919 92.9315 41.9919 89.6126V83.6031C41.9919 80.2841 44.6824 77.5936 48.0014 77.5936C51.3203 77.5936 54.0109 80.2841 54.0109 83.6031V89.6126Z" fill="white"/>
<path d="M14.9684 74.0106C12.0941 75.67 8.41873 74.6852 6.75925 71.8109C5.09977 68.9366 6.08458 65.2613 8.95888 63.6018L14.1633 60.597C17.0376 58.9376 20.7129 59.9224 22.3724 62.7967C24.0319 65.671 23.0471 69.3463 20.1728 71.0058L14.9684 74.0106Z" fill="white"/>
<path d="M8.95889 32.3977C6.08458 30.7383 5.09977 27.0629 6.75925 24.1886C8.41873 21.3143 12.0941 20.3295 14.9684 21.989L20.1728 24.9937C23.0471 26.6532 24.0319 30.3286 22.3724 33.2029C20.7129 36.0772 17.0376 37.062 14.1633 35.4025L8.95889 32.3977Z" fill="white"/>
</svg>
