<svg width="96" height="96" viewBox="0 0 96 96" fill="none" xmlns="http://www.w3.org/2000/svg">
<path d="M73 19.087C73 14.8723 76.996 11.7639 80.6708 13.8279C89.8189 18.9661 96 28.7606 96 40V66C96 82.5685 82.5685 96 66 96H30C13.4315 96 0 82.5685 0 66V40C0 28.7606 6.18108 18.9661 15.3292 13.8279C19.004 11.7639 23 14.8723 23 19.087C23 21.7078 21.3584 23.9898 19.2567 25.5556C14.8524 28.837 12 34.0855 12 40V66C12 75.9411 20.0589 84 30 84H66C75.9411 84 84 75.9411 84 66V40C84 34.0855 81.1476 28.837 76.7433 25.5556C74.6416 23.9898 73 21.7078 73 19.087ZM57 16C57 19.3137 54.3137 22 51 22H45C41.6863 22 39 19.3137 39 16C39 12.6863 41.6863 10 45 10H51C54.3137 10 57 12.6863 57 16Z" fill="#E8E8E8"/>
<path d="M31 0C34.3137 0 37 2.68629 37 6V18C37 21.3137 34.3137 24 31 24C27.6863 24 25 21.3137 25 18V6C25 2.68629 27.6863 0 31 0ZM65 0C68.3137 0 71 2.68629 71 6V18C71 21.3137 68.3137 24 65 24C61.6863 24 59 21.3137 59 18V6C59 2.68629 61.6863 0 65 0Z" fill="#E8E8E8" fill-opacity="0.45"/>
<rect x="73" y="40" width="8" height="49" rx="4" transform="rotate(90 73 40)" fill="#E8E8E8" fill-opacity="0.45"/>
<rect x="45" y="40" width="8" height="21" rx="4" transform="rotate(90 45 40)" fill="#E8E8E8"/>
<rect x="59" y="53" width="8" height="35" rx="4" transform="rotate(90 59 53)" fill="#E8E8E8" fill-opacity="0.45"/>
<rect x="45" y="53" width="8" height="21" rx="4" transform="rotate(90 45 53)" fill="#E8E8E8"/>
<rect x="45" y="66" width="8" height="21" rx="4" transform="rotate(90 45 66)" fill="#E8E8E8" fill-opacity="0.45"/>
<rect x="45" y="66" width="8" height="21" rx="4" transform="rotate(90 45 66)" fill="#E8E8E8"/>
</svg>
