<svg width="8" height="12" viewBox="0 0 8 12" fill="none" xmlns="http://www.w3.org/2000/svg">
<path d="M6.66504 6.11907C6.68349 6.27505 6.65568 6.43945 6.56836 6.58782L3.58301 11.6523C3.22864 12.2534 2.34373 12.0298 2.29199 11.3261L2.06836 8.29193L6.47168 6.23919C6.54221 6.2063 6.60625 6.16505 6.66504 6.11907ZM3.76074 0.34759C4.1151 -0.253593 5.00002 -0.0299812 5.05176 0.673762L5.33398 4.51263C5.33515 4.52844 5.33902 4.54388 5.34082 4.5595L1.1875 6.49505C0.739952 6.36845 0.530919 5.8276 0.775389 5.41204L3.76074 0.34759Z" fill="#FA456C"/>
<path d="M0.0939308 8.11281C-0.139475 7.61227 0.0770805 7.01729 0.57762 6.78389L5.62583 4.42987C6.12637 4.19646 6.72135 4.41302 6.95475 4.91356C7.18816 5.4141 6.9716 6.00908 6.47106 6.24248L1.42286 8.5965C0.922316 8.82991 0.327336 8.61335 0.0939308 8.11281Z" fill="#9F2D46"/>
</svg>
