<svg width="156" height="156" viewBox="0 0 156 156" fill="none" xmlns="http://www.w3.org/2000/svg">
<path d="M74.7292 0.0182812C85.1039 0.281116 94.7589 3.43815 102.918 8.71203C113.01 15.2359 106.273 28.08 94.2557 28.08C91.3178 28.08 88.4781 27.1663 85.7855 25.9911C81.9676 24.3247 77.7519 23.4 73.32 23.4H54.6C37.3687 23.4 23.4 37.3687 23.4 54.6V101.4C23.4 118.631 37.3687 132.6 54.6 132.6H73.32C77.7518 132.6 81.9674 131.675 85.7852 130.009C88.478 128.834 91.3179 127.92 94.2561 127.92C106.274 127.92 113.011 140.765 102.918 147.289C94.7591 152.562 85.1038 155.719 74.7292 155.982L73.32 156H54.6C24.4453 156 0 131.555 0 101.4V54.6C2.01021e-06 24.4453 24.4453 7.03532e-07 54.6 0H73.32L74.7292 0.0182812Z" fill="#49BD7D"/>
<path d="M114.358 47.1065C118.928 42.5374 126.337 42.5374 130.906 47.1065L151.864 68.0645C151.989 68.1893 152.108 68.3179 152.226 68.4469C154.547 70.5849 156.002 73.6486 156.002 77.0527C156.002 78.9757 155.535 80.7889 154.713 82.3894C154.161 84.0925 153.212 85.6952 151.859 87.048L130.901 108.007C126.332 112.576 118.925 112.576 114.355 108.007C109.786 103.438 109.786 96.029 114.355 91.4599L117.063 88.7528H66.3016C59.8398 88.7527 54.6016 83.5145 54.6016 77.0527C54.6016 70.591 59.8398 65.3528 66.3016 65.3528H116.059L114.358 63.6526C109.79 59.0837 109.79 51.6757 114.358 47.1065Z" fill="#49BD7D" fill-opacity="0.45"/>
</svg>
