<svg width="36" height="36" viewBox="0 0 36 36" fill="none" xmlns="http://www.w3.org/2000/svg">
<path d="M35.9727 7.93419C35.9727 3.55226 31.9549 0 26.9987 0C22.0425 0 18.0248 3.55226 18.0248 7.93419V17.348C18.0248 18.1232 17.8795 18.9141 18.0776 19.6693C18.5766 21.5716 21.181 23.9031 28.9698 21.425C33.4652 19.9947 35.9727 15.8973 35.9727 11.6733V7.93419Z" fill="#D4D4D4" fill-opacity="0.5"/>
<path d="M35.9724 8.33301C35.9885 8.55317 35.9998 8.77572 35.9998 9V26.999C35.9997 31.9693 31.97 35.999 26.9998 35.999C22.0294 35.999 17.9998 31.9693 17.9998 26.999V19.2188C18.0159 19.3699 18.0389 19.5202 18.0779 19.6689C18.5769 21.5712 21.1808 23.9028 28.9695 21.4248C33.4649 19.9946 35.9724 15.8969 35.9724 11.6729V8.33301ZM18.0242 17.3477C18.0242 17.5748 18.0124 17.8037 17.9998 18.0322V9C17.9998 8.78865 18.0098 8.57881 18.0242 8.37109V17.3477Z" fill="white"/>
<rect width="16.4993" height="29.9988" rx="8.24966" transform="matrix(-1 0 0 1 16.4993 3)" fill="white"/>
</svg>
