<svg width="156" height="156" viewBox="0 0 156 156" fill="none" xmlns="http://www.w3.org/2000/svg">
<path d="M106.08 23.921C106.08 14.9128 115.163 8.8295 122.553 13.9808C142.77 28.0738 156 51.4959 156 78.0092C156 121.087 121.078 156.008 78 156.008C34.9218 156.008 0 121.087 0 78.0092C0.000203884 51.4959 13.2297 28.0738 33.4473 13.9808C40.8373 8.8295 49.92 14.9128 49.92 23.921C49.92 28.4236 47.4842 32.508 43.9651 35.3169C31.4316 45.3206 23.4002 60.7263 23.4 78.0092C23.4 108.163 47.8453 132.608 78 132.608C108.155 132.608 132.6 108.163 132.6 78.0092C132.6 60.7263 124.568 45.3206 112.035 35.3169C108.516 32.508 106.08 28.4236 106.08 23.921Z" fill="#FA456C"/>
<rect x="65.5234" width="24.96" height="68.639" rx="12.48" fill="#FA456C" fill-opacity="0.45"/>
</svg>
