<svg width="188" height="156" viewBox="0 0 188 156" fill="none" xmlns="http://www.w3.org/2000/svg">
<path d="M89 0C125.219 0 155.669 24.6872 164.448 58.1523L152.622 72.8994L139.843 58.0762C131.883 37.7757 112.123 23.4004 89 23.4004C58.8453 23.4004 34.4004 47.8453 34.4004 78C34.4004 108.155 58.8453 132.6 89 132.6C104.505 132.6 118.5 126.136 128.439 115.757C131.296 112.774 135.113 110.76 139.242 110.76C148.834 110.76 154.969 120.712 148.81 128.064C134.503 145.141 113.021 156 89 156C45.9218 156 11 121.078 11 78C11 34.9218 45.9218 1.67529e-06 89 0Z" fill="#EBA86D"/>
<path d="M183.653 72.8995C188.387 68.1195 188.387 60.3682 183.653 55.5882C178.918 50.8089 171.243 50.8085 166.509 55.5882L152.625 72.8995L137.698 55.585C132.964 50.805 125.287 50.805 120.553 55.585C115.82 60.365 115.82 68.1149 120.553 72.8947L142.269 94.82C143.671 96.2352 145.332 97.2278 147.096 97.805C148.754 98.665 150.633 99.1534 152.625 99.1534C156.152 99.1534 159.327 97.6317 161.542 95.204C161.676 95.0806 161.809 94.9553 161.938 94.8247L183.653 72.8995Z" fill="#EBA86D" fill-opacity="0.45"/>
</svg>
