<svg width="96" height="96" viewBox="0 0 96 96" fill="none" xmlns="http://www.w3.org/2000/svg">
<path d="M37.9248 40.1689C33.5272 51.5818 34.8968 57.6692 37.1787 60.0342C39.3504 62.2848 45.0954 63.8759 56.6924 59.1855C58.5531 58.433 60.4541 58.0721 62.2207 57.9336C73.2931 57.0654 82.0117 47.7982 82.0117 36.5C82.0117 24.626 72.3856 15.0002 60.5117 15C49.1877 15 39.9042 23.7579 39.0723 34.8662C38.9456 36.5568 38.6152 38.3771 37.9248 40.1689Z" stroke="white" stroke-opacity="0.45" stroke-width="10"/>
<path d="M37.5801 7.30078C38.0073 7.19182 38.2798 7.23198 38.4795 7.29688C38.7092 7.37155 39.0329 7.54722 39.3965 7.92969C40.1728 8.74644 40.8266 10.2142 40.8135 11.9062C40.7161 24.4321 44.1663 35.902 51.5322 44.1602C59.0186 52.5534 69.9577 56.9549 83.3037 56.2539C85.1863 56.1551 86.8595 56.8191 87.7793 57.6328C88.2068 58.011 88.3834 58.337 88.4521 58.542C88.5078 58.7082 88.5572 58.97 88.4258 59.4355C83.4463 77.0787 67.2244 90 48 90C24.804 90 6 71.196 6 48C6 28.4075 19.4212 11.9341 37.5801 7.30078Z" stroke="white" stroke-width="12"/>
</svg>
