<svg width="96" height="96" viewBox="0 0 96 96" fill="none" xmlns="http://www.w3.org/2000/svg">
<path d="M6 90L18 78" stroke="#E8E8E8" stroke-opacity="0.45" stroke-width="12" stroke-linecap="round"/>
<path d="M90 90L78 78" stroke="#E8E8E8" stroke-opacity="0.45" stroke-width="12" stroke-linecap="round"/>
<rect width="15.4438" height="28.3137" rx="7.72192" transform="matrix(-1 0 0 1 55.4453 29)" fill="#E8E8E8"/>
<path d="M32.2604 54.3621C29.2449 57.3777 29.2449 62.2669 32.2604 65.2825C35.276 68.2981 40.1653 68.2981 43.1809 65.2825L52.2813 56.1821C55.2969 53.1665 55.2969 48.2773 52.2813 45.2617C49.2657 42.2461 44.3764 42.2461 41.3608 45.2617L32.2604 54.3621Z" fill="#E8E8E8" fill-opacity="0.45"/>
<path d="M48 0C52.9923 0 57.8063 0.762722 62.3323 2.17743C66.3225 3.42464 67.1906 8.37243 64.3338 11.4246C62.557 13.323 59.8091 13.8836 57.2968 13.2134C54.3312 12.4222 51.215 12 48 12C28.1177 12 12 28.1177 12 48C12 67.8822 28.1177 84 48 84C67.8822 84 84 67.8822 84 48C84 40.92 81.9559 34.3176 78.426 28.7502C76.7568 26.1175 76.767 22.6242 78.8973 20.3483C81.3148 17.7656 85.453 17.772 87.4691 20.6788C92.8476 28.4332 96 37.8481 96 48C96 74.5097 74.5097 96 48 96C21.4903 96 0 74.5097 0 48C0 21.4903 21.4903 0 48 0Z" fill="#E8E8E8"/>
</svg>
