<svg width="96" height="96" viewBox="0 0 96 96" fill="none" xmlns="http://www.w3.org/2000/svg">
<circle cx="48" cy="48" r="42" stroke="white" stroke-width="12"/>
<path d="M23.205 62.104C25.8038 66.668 29.8131 70.0205 33.8587 72.1198C37.8047 74.1673 42.6945 75.4849 47.4399 74.8313C49.0505 74.6103 50.5102 74.1815 51.83 73.6105C53.7538 72.7782 54.2419 70.4149 53.2044 68.5928C51.9272 66.3499 48.8019 66.0007 46.2425 66.3519C41.2496 67.0427 33.9333 63.6215 30.6742 57.8979C27.4153 52.1743 28.2288 44.1756 31.3928 40.273C33.0122 38.2709 34.3188 35.4261 33.0417 33.1832L32.7651 32.6974C31.8848 31.1515 29.9505 30.4786 28.4683 31.4586C27.1331 32.3415 25.8534 33.4613 24.7033 34.8816C21.694 38.5934 20.3132 43.4453 20.0489 47.867C19.778 52.3969 20.6064 57.5402 23.205 62.104Z" fill="white" fill-opacity="0.45"/>
<path d="M52.8555 44.8822C55.2513 49.0897 53.7637 54.432 49.5328 56.8145C45.3019 59.1971 39.9299 57.7177 37.5341 53.5102C35.1383 49.3027 36.626 43.9604 40.8568 41.5779C45.0877 39.1953 50.4597 40.6747 52.8555 44.8822Z" fill="white"/>
</svg>
