<svg width="146" height="146" viewBox="0 0 146 146" fill="none" xmlns="http://www.w3.org/2000/svg">
<circle cx="73" cy="73" r="73" fill="#FA456C"/>
<circle cx="73" cy="73" r="65.5" stroke="black" stroke-opacity="0.2" stroke-width="15"/>
<path d="M60.5537 48.1553C67.4277 41.2816 78.5723 41.2816 85.4463 48.1553L97.8447 60.5537C104.718 67.4277 104.718 78.5723 97.8447 85.4463L85.4463 97.8447C78.5723 104.718 67.4277 104.718 60.5537 97.8447L48.1553 85.4463C41.2816 78.5723 41.2816 67.4277 48.1553 60.5537L60.5537 48.1553Z" stroke="white" stroke-width="12"/>
<path d="M60.5537 48.1553C67.4277 41.2816 78.5723 41.2816 85.4463 48.1553L97.8447 60.5537C104.718 67.4277 104.718 78.5723 97.8447 85.4463L85.4463 97.8447C78.5723 104.718 67.4277 104.718 60.5537 97.8447L48.1553 85.4463C41.2816 78.5723 41.2816 67.4277 48.1553 60.5537L60.5537 48.1553Z" stroke="white" stroke-width="12"/>
<path d="M62.0148 62.7852C64.5441 60.0653 67.9932 58.3806 71.6933 58.057C74.1265 57.8443 76.5548 58.2303 78.775 59.1564C80.702 59.9602 81.0243 62.3842 79.7654 64.0499C78.5064 65.7158 76.0986 65.9229 74.0307 65.6333C73.4783 65.5559 72.9151 65.5404 72.3515 65.5897C70.5169 65.7502 68.8068 66.5862 67.5526 67.9348L67.3239 68.1926C66.2125 69.5047 65.5872 71.165 65.5619 72.8914C65.535 74.7329 66.1933 76.5193 67.4075 77.9042C68.6217 79.2888 70.3063 80.1744 72.1355 80.3884C73.9648 80.6024 75.8083 80.1294 77.3095 79.0622C78.717 78.0616 79.73 76.605 80.1797 74.945L80.2618 74.6109C80.3843 74.0587 80.4425 73.4986 80.4381 72.9411C80.4215 70.8531 80.9413 68.4929 82.7573 67.4623C84.5734 66.4317 86.9347 67.068 87.4798 69.0836C88.1077 71.4057 88.1729 73.8635 87.6441 76.2479L87.5649 76.5871C86.7063 80.0734 84.6235 83.1403 81.6909 85.2252C78.7582 87.3101 75.1773 88.2693 71.6023 87.9347L71.257 87.8982C67.6834 87.4801 64.3832 85.7921 61.9541 83.1483L61.721 82.8898C59.3488 80.1843 58.0306 76.7186 58 73.1282L58.0014 72.7805C58.0558 69.0668 59.4856 65.505 62.0148 62.7852Z" fill="white" fill-opacity="0.45"/>
</svg>
