<svg width="96" height="96" viewBox="0 0 96 96" fill="none" xmlns="http://www.w3.org/2000/svg">
<path d="M29.9902 13.46C39.9367 3.51345 56.0632 3.51344 66.0098 13.46L82.54 29.9902C92.4866 39.9367 92.4866 56.0632 82.54 66.0098L66.0098 82.54C56.0632 92.4866 39.9367 92.4866 29.9902 82.54L13.46 66.0098C3.51345 56.0632 3.51345 39.9367 13.46 29.9902L29.9902 13.46Z" stroke="white" stroke-width="12"/>
<path d="M29.9902 13.46C39.9367 3.51345 56.0632 3.51344 66.0098 13.46L82.54 29.9902C92.4866 39.9367 92.4866 56.0632 82.54 66.0098L66.0098 82.54C56.0632 92.4866 39.9367 92.4866 29.9902 82.54L13.46 66.0098C3.51345 56.0632 3.51345 39.9367 13.46 29.9902L29.9902 13.46Z" stroke="white" stroke-width="12"/>
<path d="M33.353 34.3802C36.7255 30.7537 41.3243 28.5074 46.2577 28.076C49.502 27.7924 52.7397 28.307 55.7 29.5419C58.2693 30.6137 58.6991 33.8456 57.0206 36.0666C55.3419 38.2877 52.1315 38.5639 49.3742 38.1778C48.6377 38.0746 47.8868 38.0539 47.1354 38.1196C44.6892 38.3336 42.409 39.4482 40.7368 41.2464L40.4318 41.5902C38.95 43.3396 38.1163 45.5533 38.0825 47.8552C38.0467 50.3105 38.9244 52.6924 40.5433 54.5389C42.1623 56.385 44.4085 57.5658 46.8473 57.8512C49.2865 58.1365 51.7445 57.5058 53.746 56.0829C55.6226 54.7488 56.9734 52.8066 57.5729 50.5933L57.6824 50.1479C57.8457 49.4117 57.9233 48.6648 57.9174 47.9214C57.8953 45.1374 58.5884 41.9906 61.0098 40.6164C63.4311 39.2422 66.5796 40.0906 67.3064 42.7782C68.1436 45.8743 68.2306 49.1513 67.5255 52.3305L67.4198 52.7828C66.2751 57.4312 63.498 61.5204 59.5879 64.3003C55.6775 67.0802 50.9031 68.3591 46.1363 67.913L45.676 67.8643C40.9112 67.3069 36.5109 65.0562 33.2722 61.531L32.9613 61.1864C29.7984 57.5791 28.0408 52.9582 28 48.171L28.0018 47.7073C28.0744 42.7558 29.9808 38.0067 33.353 34.3802Z" fill="white" fill-opacity="0.45"/>
</svg>
