<svg width="96" height="96" viewBox="0 0 96 96" fill="none" xmlns="http://www.w3.org/2000/svg">
<path d="M74 65.0645C77.3137 65.0645 79.9999 67.7508 80 71.0645V71.3516C79.9997 85.9312 64.6356 95.0789 51.6133 89.1748C46.935 87.0535 41.8575 85.9561 36.7207 85.9561H30.7451C27.2198 85.956 23.8761 85.0843 20.9434 83.5391L30.5322 73.9502C30.603 73.9518 30.6739 73.9561 30.7451 73.9561H45.9463C47.1032 73.9561 48.2163 74.2934 49.166 74.8887L56.5684 78.2451C62.1069 80.7562 67.9997 76.7088 68 71.3516V71.0645C68.0001 67.7508 70.6863 65.0645 74 65.0645ZM48.1963 8.15625C57.4569 2.43114 68.8825 4.94952 75.21 12.3037L66.6201 20.8936C64.1887 17.2791 58.9747 15.6013 54.5068 18.3633L52.7812 19.4297C49.4627 21.4813 45.6274 22.5634 41.7227 22.5635H30.7451C25.764 22.5636 22.0001 26.4551 22 30.9219V65.5146L12.3975 75.1162C10.8704 72.2886 10.0001 69.0551 10 65.5977V30.9219C10.0001 19.529 19.4393 10.5636 30.7451 10.5635H41.7227C43.4159 10.5634 45.0633 10.0937 46.4707 9.22363L48.1963 8.15625ZM79.9795 24.5029C79.9913 24.7936 80 25.0865 80 25.3818V40.0645C80 43.3782 77.3137 46.0645 74 46.0645C70.6863 46.0645 68 43.3782 68 40.0645V36.4834L79.9795 24.5029Z" fill="white" fill-opacity="0.45"/>
<path fill-rule="evenodd" clip-rule="evenodd" d="M78.7573 8.75778C81.1004 6.41468 84.8985 6.41477 87.2417 8.75778C89.5848 11.1009 89.5848 14.899 87.2417 17.2422L17.2417 87.2422C14.8985 89.5853 11.1004 89.5853 8.75729 87.2422C6.41428 84.899 6.41419 81.1009 8.75729 78.7578L78.7573 8.75778Z" fill="white"/>
</svg>
