<svg width="96" height="96" viewBox="0 0 96 96" fill="none" xmlns="http://www.w3.org/2000/svg">
<path d="M69.8422 34.3832C78.3284 25.897 92.8131 26.9788 95.1109 38.7581C95.6943 41.7487 96 44.8386 96 48C96 74.5097 74.5097 96 48 96C44.8383 96 41.748 95.6943 38.7571 95.1108C26.9778 92.813 25.8961 78.3286 34.3824 69.8425L69.8422 34.3832ZM48 0C50.9367 0 53.8117 0.263906 56.6027 0.769233C68.4842 2.9205 69.6573 17.4989 61.1192 26.037L26.037 61.1192C17.4989 69.6573 2.9205 68.4842 0.769232 56.6027C0.263906 53.8117 0 50.9367 0 48C0 21.4903 21.4903 0 48 0Z" fill="#D9D9D9"/>
</svg>
