<svg width="36" height="36" viewBox="0 0 36 36" fill="none" xmlns="http://www.w3.org/2000/svg">
<path d="M27.3529 8.58925C34.8823 12.7718 34.8824 23.2282 27.3529 27.4107L19.9412 31.5279C12.4118 35.7105 3 30.4823 3 22.1172V13.8828C3 5.51771 12.4118 0.289505 19.9412 4.47206L27.3529 8.58925Z" fill="#D4D4D4" fill-opacity="0.5"/>
<path d="M27.3529 8.58985C34.8823 12.7724 34.8824 23.2288 27.3529 27.4113L19.9412 31.5285C12.4118 35.7111 3 30.4829 3 22.1178C3 18.8396 6.97711 17.0184 10.1439 17.8655C14.9074 19.1397 18.5062 17.0292 19.8676 12.8554C20.8822 9.74445 24.4925 7.00087 27.3529 8.58985Z" fill="white"/>
</svg>
